<mxfile host="Electron" agent="Mozilla/5.0 (Windows NT 10.0; Win64; x64) AppleWebKit/537.36 (KHTML, like Gecko) draw.io/26.2.2 Chrome/134.0.6998.178 Electron/35.1.2 Safari/537.36" version="26.2.2">
  <diagram name="Página-1" id="87Gc_GPYY7CbCqbVEZ81">
    <mxGraphModel dx="2612" dy="1051" grid="1" gridSize="10" guides="1" tooltips="1" connect="1" arrows="1" fold="1" page="1" pageScale="1" pageWidth="827" pageHeight="1169" math="0" shadow="0">
      <root>
        <mxCell id="0" />
        <mxCell id="1" parent="0" />
        <mxCell id="k6TKzHXYJxToXEQoLTug-1" value="&amp;lt;&amp;lt;Interface Serviço&amp;gt;&amp;gt;&lt;div&gt;ValidarInformações&lt;/div&gt;" style="swimlane;fontStyle=0;childLayout=stackLayout;horizontal=1;startSize=30;horizontalStack=0;resizeParent=1;resizeParentMax=0;resizeLast=0;collapsible=1;marginBottom=0;whiteSpace=wrap;html=1;" parent="1" vertex="1">
          <mxGeometry x="340" y="310" width="350" height="190" as="geometry" />
        </mxCell>
        <mxCell id="k6TKzHXYJxToXEQoLTug-2" value="+ Validar dados de cadastro do gestor (DadosCadastroGestor):ResultadoValidação" style="text;strokeColor=none;fillColor=none;align=left;verticalAlign=middle;spacingLeft=4;spacingRight=4;overflow=hidden;points=[[0,0.5],[1,0.5]];portConstraint=eastwest;rotatable=0;whiteSpace=wrap;html=1;" parent="k6TKzHXYJxToXEQoLTug-1" vertex="1">
          <mxGeometry y="30" width="350" height="40" as="geometry" />
        </mxCell>
        <mxCell id="k6TKzHXYJxToXEQoLTug-3" value="+ Validar dados de login do gestor (DadosAuthGestor):ResultadoValidação" style="text;strokeColor=none;fillColor=none;align=left;verticalAlign=middle;spacingLeft=4;spacingRight=4;overflow=hidden;points=[[0,0.5],[1,0.5]];portConstraint=eastwest;rotatable=0;whiteSpace=wrap;html=1;" parent="k6TKzHXYJxToXEQoLTug-1" vertex="1">
          <mxGeometry y="70" width="350" height="40" as="geometry" />
        </mxCell>
        <mxCell id="k6TKzHXYJxToXEQoLTug-4" value="+ Validar dados de cadastro do funcionário (DadosCadastroFuncionário):ResultadoValidação" style="text;strokeColor=none;fillColor=none;align=left;verticalAlign=middle;spacingLeft=4;spacingRight=4;overflow=hidden;points=[[0,0.5],[1,0.5]];portConstraint=eastwest;rotatable=0;whiteSpace=wrap;html=1;" parent="k6TKzHXYJxToXEQoLTug-1" vertex="1">
          <mxGeometry y="110" width="350" height="40" as="geometry" />
        </mxCell>
        <mxCell id="k6TKzHXYJxToXEQoLTug-6" value="+ Validar dados de login do funcionário (DadosAuthFuncionário):ResultadoValidação" style="text;strokeColor=none;fillColor=none;align=left;verticalAlign=middle;spacingLeft=4;spacingRight=4;overflow=hidden;points=[[0,0.5],[1,0.5]];portConstraint=eastwest;rotatable=0;whiteSpace=wrap;html=1;" parent="k6TKzHXYJxToXEQoLTug-1" vertex="1">
          <mxGeometry y="150" width="350" height="40" as="geometry" />
        </mxCell>
        <mxCell id="k6TKzHXYJxToXEQoLTug-12" value="" style="edgeStyle=orthogonalEdgeStyle;rounded=0;orthogonalLoop=1;jettySize=auto;html=1;dashed=1;strokeWidth=2;endArrow=block;endFill=0;" parent="1" source="k6TKzHXYJxToXEQoLTug-7" target="k6TKzHXYJxToXEQoLTug-6" edge="1">
          <mxGeometry relative="1" as="geometry">
            <Array as="points">
              <mxPoint x="515" y="490" />
              <mxPoint x="515" y="490" />
            </Array>
          </mxGeometry>
        </mxCell>
        <mxCell id="k6TKzHXYJxToXEQoLTug-7" value="&amp;lt;&amp;lt;Mediação&amp;gt;&amp;gt;&lt;div&gt;ValidarInformações Mediação&lt;/div&gt;" style="swimlane;fontStyle=0;childLayout=stackLayout;horizontal=1;startSize=30;horizontalStack=0;resizeParent=1;resizeParentMax=0;resizeLast=0;collapsible=1;marginBottom=0;whiteSpace=wrap;html=1;" parent="1" vertex="1">
          <mxGeometry x="340" y="570" width="350" height="180" as="geometry" />
        </mxCell>
        <mxCell id="k6TKzHXYJxToXEQoLTug-8" value="&amp;lt;&amp;lt;Interface Serviço&amp;gt;&amp;gt; ValidarInformações" style="text;strokeColor=none;fillColor=none;align=left;verticalAlign=middle;spacingLeft=4;spacingRight=4;overflow=hidden;points=[[0,0.5],[1,0.5]];portConstraint=eastwest;rotatable=0;whiteSpace=wrap;html=1;" parent="k6TKzHXYJxToXEQoLTug-7" vertex="1">
          <mxGeometry y="30" width="350" height="30" as="geometry" />
        </mxCell>
        <mxCell id="k6TKzHXYJxToXEQoLTug-13" value="+ Validar dados de cadastro do gestor ()" style="text;strokeColor=none;fillColor=none;align=left;verticalAlign=middle;spacingLeft=4;spacingRight=4;overflow=hidden;points=[[0,0.5],[1,0.5]];portConstraint=eastwest;rotatable=0;whiteSpace=wrap;html=1;" parent="k6TKzHXYJxToXEQoLTug-7" vertex="1">
          <mxGeometry y="60" width="350" height="30" as="geometry" />
        </mxCell>
        <mxCell id="k6TKzHXYJxToXEQoLTug-9" value="+ Validar dados de login do gestor ()" style="text;strokeColor=none;fillColor=none;align=left;verticalAlign=middle;spacingLeft=4;spacingRight=4;overflow=hidden;points=[[0,0.5],[1,0.5]];portConstraint=eastwest;rotatable=0;whiteSpace=wrap;html=1;" parent="k6TKzHXYJxToXEQoLTug-7" vertex="1">
          <mxGeometry y="90" width="350" height="30" as="geometry" />
        </mxCell>
        <mxCell id="k6TKzHXYJxToXEQoLTug-10" value="+ Validar dados de cadastro do funcionário ()" style="text;strokeColor=none;fillColor=none;align=left;verticalAlign=middle;spacingLeft=4;spacingRight=4;overflow=hidden;points=[[0,0.5],[1,0.5]];portConstraint=eastwest;rotatable=0;whiteSpace=wrap;html=1;" parent="k6TKzHXYJxToXEQoLTug-7" vertex="1">
          <mxGeometry y="120" width="350" height="30" as="geometry" />
        </mxCell>
        <mxCell id="k6TKzHXYJxToXEQoLTug-11" value="+ Validar dados de login do funcionário ()" style="text;strokeColor=none;fillColor=none;align=left;verticalAlign=middle;spacingLeft=4;spacingRight=4;overflow=hidden;points=[[0,0.5],[1,0.5]];portConstraint=eastwest;rotatable=0;whiteSpace=wrap;html=1;" parent="k6TKzHXYJxToXEQoLTug-7" vertex="1">
          <mxGeometry y="150" width="350" height="30" as="geometry" />
        </mxCell>
        <mxCell id="k6TKzHXYJxToXEQoLTug-14" value="&amp;lt;&amp;lt;Componente Serviço&amp;gt;&amp;gt;&lt;div&gt;Validar dados de cadastro do gestor&lt;/div&gt;" style="swimlane;fontStyle=0;childLayout=stackLayout;horizontal=1;startSize=30;horizontalStack=0;resizeParent=1;resizeParentMax=0;resizeLast=0;collapsible=1;marginBottom=0;whiteSpace=wrap;html=1;" parent="1" vertex="1">
          <mxGeometry x="-220" y="820" width="350" height="60" as="geometry" />
        </mxCell>
        <mxCell id="k6TKzHXYJxToXEQoLTug-16" value="+ Validar dados de cadastro do gestor ()" style="text;strokeColor=none;fillColor=none;align=left;verticalAlign=middle;spacingLeft=4;spacingRight=4;overflow=hidden;points=[[0,0.5],[1,0.5]];portConstraint=eastwest;rotatable=0;whiteSpace=wrap;html=1;" parent="k6TKzHXYJxToXEQoLTug-14" vertex="1">
          <mxGeometry y="30" width="350" height="30" as="geometry" />
        </mxCell>
        <mxCell id="k6TKzHXYJxToXEQoLTug-20" value="&amp;lt;&amp;lt;Componente Serviço&amp;gt;&amp;gt;&lt;div&gt;Validar dados de Login do gestor&lt;/div&gt;" style="swimlane;fontStyle=0;childLayout=stackLayout;horizontal=1;startSize=30;horizontalStack=0;resizeParent=1;resizeParentMax=0;resizeLast=0;collapsible=1;marginBottom=0;whiteSpace=wrap;html=1;" parent="1" vertex="1">
          <mxGeometry x="150" y="820" width="350" height="60" as="geometry" />
        </mxCell>
        <mxCell id="k6TKzHXYJxToXEQoLTug-21" value="+ Validar dados de Login do gestor ()" style="text;strokeColor=none;fillColor=none;align=left;verticalAlign=middle;spacingLeft=4;spacingRight=4;overflow=hidden;points=[[0,0.5],[1,0.5]];portConstraint=eastwest;rotatable=0;whiteSpace=wrap;html=1;" parent="k6TKzHXYJxToXEQoLTug-20" vertex="1">
          <mxGeometry y="30" width="350" height="30" as="geometry" />
        </mxCell>
        <mxCell id="ukzI_lSzqX0K3y_ECkxB-7" style="edgeStyle=none;shape=connector;rounded=0;orthogonalLoop=1;jettySize=auto;html=1;exitX=0.5;exitY=0;exitDx=0;exitDy=0;dashed=1;strokeColor=default;strokeWidth=2;align=center;verticalAlign=middle;fontFamily=Helvetica;fontSize=11;fontColor=default;labelBackgroundColor=default;startArrow=open;startFill=0;endArrow=none;endFill=0;" edge="1" parent="1" source="k6TKzHXYJxToXEQoLTug-22">
          <mxGeometry relative="1" as="geometry">
            <mxPoint x="520" y="750" as="targetPoint" />
          </mxGeometry>
        </mxCell>
        <mxCell id="ukzI_lSzqX0K3y_ECkxB-18" value="Use" style="edgeLabel;html=1;align=center;verticalAlign=middle;resizable=0;points=[];fontFamily=Helvetica;fontSize=11;fontColor=default;labelBackgroundColor=default;" vertex="1" connectable="0" parent="ukzI_lSzqX0K3y_ECkxB-7">
          <mxGeometry x="-0.1637" y="1" relative="1" as="geometry">
            <mxPoint as="offset" />
          </mxGeometry>
        </mxCell>
        <mxCell id="k6TKzHXYJxToXEQoLTug-22" value="&amp;lt;&amp;lt;Componente Serviço&amp;gt;&amp;gt;&lt;div&gt;Validar dados de cadastro do Funcionário&lt;/div&gt;" style="swimlane;fontStyle=0;childLayout=stackLayout;horizontal=1;startSize=30;horizontalStack=0;resizeParent=1;resizeParentMax=0;resizeLast=0;collapsible=1;marginBottom=0;whiteSpace=wrap;html=1;" parent="1" vertex="1">
          <mxGeometry x="540" y="820" width="350" height="60" as="geometry" />
        </mxCell>
        <mxCell id="k6TKzHXYJxToXEQoLTug-23" value="+ Validar dados de cadastro do funcionário()" style="text;strokeColor=none;fillColor=none;align=left;verticalAlign=middle;spacingLeft=4;spacingRight=4;overflow=hidden;points=[[0,0.5],[1,0.5]];portConstraint=eastwest;rotatable=0;whiteSpace=wrap;html=1;" parent="k6TKzHXYJxToXEQoLTug-22" vertex="1">
          <mxGeometry y="30" width="350" height="30" as="geometry" />
        </mxCell>
        <mxCell id="ukzI_lSzqX0K3y_ECkxB-9" style="edgeStyle=none;shape=connector;rounded=0;orthogonalLoop=1;jettySize=auto;html=1;exitX=0.5;exitY=0;exitDx=0;exitDy=0;dashed=1;strokeColor=default;strokeWidth=2;align=center;verticalAlign=middle;fontFamily=Helvetica;fontSize=11;fontColor=default;labelBackgroundColor=default;startArrow=open;startFill=0;endArrow=none;endFill=0;" edge="1" parent="1" source="k6TKzHXYJxToXEQoLTug-24">
          <mxGeometry relative="1" as="geometry">
            <mxPoint x="518.2978723404256" y="750" as="targetPoint" />
          </mxGeometry>
        </mxCell>
        <mxCell id="ukzI_lSzqX0K3y_ECkxB-19" value="Use" style="edgeLabel;html=1;align=center;verticalAlign=middle;resizable=0;points=[];fontFamily=Helvetica;fontSize=11;fontColor=default;labelBackgroundColor=default;" vertex="1" connectable="0" parent="ukzI_lSzqX0K3y_ECkxB-9">
          <mxGeometry x="-0.0127" y="-2" relative="1" as="geometry">
            <mxPoint as="offset" />
          </mxGeometry>
        </mxCell>
        <mxCell id="k6TKzHXYJxToXEQoLTug-24" value="&amp;lt;&amp;lt;Componente Serviço&amp;gt;&amp;gt;&lt;div&gt;Validar dados de Login do Funcionário&lt;/div&gt;" style="swimlane;fontStyle=0;childLayout=stackLayout;horizontal=1;startSize=30;horizontalStack=0;resizeParent=1;resizeParentMax=0;resizeLast=0;collapsible=1;marginBottom=0;whiteSpace=wrap;html=1;" parent="1" vertex="1">
          <mxGeometry x="920" y="820" width="350" height="60" as="geometry" />
        </mxCell>
        <mxCell id="k6TKzHXYJxToXEQoLTug-25" value="+ Validar dados de login do funcionário()" style="text;strokeColor=none;fillColor=none;align=left;verticalAlign=middle;spacingLeft=4;spacingRight=4;overflow=hidden;points=[[0,0.5],[1,0.5]];portConstraint=eastwest;rotatable=0;whiteSpace=wrap;html=1;" parent="k6TKzHXYJxToXEQoLTug-24" vertex="1">
          <mxGeometry y="30" width="350" height="30" as="geometry" />
        </mxCell>
        <mxCell id="k6TKzHXYJxToXEQoLTug-32" value="&amp;lt;&amp;lt;Classe&amp;gt;&amp;gt;&lt;div&gt;Gestor&lt;/div&gt;" style="swimlane;fontStyle=0;childLayout=stackLayout;horizontal=1;startSize=30;horizontalStack=0;resizeParent=1;resizeParentMax=0;resizeLast=0;collapsible=1;marginBottom=0;whiteSpace=wrap;html=1;" parent="1" vertex="1">
          <mxGeometry x="360" y="970" width="130" height="150" as="geometry" />
        </mxCell>
        <mxCell id="k6TKzHXYJxToXEQoLTug-34" value="+ Criar ()" style="text;strokeColor=none;fillColor=none;align=left;verticalAlign=middle;spacingLeft=4;spacingRight=4;overflow=hidden;points=[[0,0.5],[1,0.5]];portConstraint=eastwest;rotatable=0;whiteSpace=wrap;html=1;" parent="k6TKzHXYJxToXEQoLTug-32" vertex="1">
          <mxGeometry y="30" width="130" height="30" as="geometry" />
        </mxCell>
        <mxCell id="k6TKzHXYJxToXEQoLTug-35" value="+ Atualizar ()" style="text;strokeColor=none;fillColor=none;align=left;verticalAlign=middle;spacingLeft=4;spacingRight=4;overflow=hidden;points=[[0,0.5],[1,0.5]];portConstraint=eastwest;rotatable=0;whiteSpace=wrap;html=1;" parent="k6TKzHXYJxToXEQoLTug-32" vertex="1">
          <mxGeometry y="60" width="130" height="30" as="geometry" />
        </mxCell>
        <mxCell id="k6TKzHXYJxToXEQoLTug-36" value="+ Buscar ()" style="text;strokeColor=none;fillColor=none;align=left;verticalAlign=middle;spacingLeft=4;spacingRight=4;overflow=hidden;points=[[0,0.5],[1,0.5]];portConstraint=eastwest;rotatable=0;whiteSpace=wrap;html=1;" parent="k6TKzHXYJxToXEQoLTug-32" vertex="1">
          <mxGeometry y="90" width="130" height="30" as="geometry" />
        </mxCell>
        <mxCell id="k6TKzHXYJxToXEQoLTug-37" value="+ Remover()" style="text;strokeColor=none;fillColor=none;align=left;verticalAlign=middle;spacingLeft=4;spacingRight=4;overflow=hidden;points=[[0,0.5],[1,0.5]];portConstraint=eastwest;rotatable=0;whiteSpace=wrap;html=1;" parent="k6TKzHXYJxToXEQoLTug-32" vertex="1">
          <mxGeometry y="120" width="130" height="30" as="geometry" />
        </mxCell>
        <mxCell id="k6TKzHXYJxToXEQoLTug-38" value="&amp;lt;&amp;lt;Classe&amp;gt;&amp;gt;&lt;div&gt;Funcionário&lt;/div&gt;" style="swimlane;fontStyle=0;childLayout=stackLayout;horizontal=1;startSize=30;horizontalStack=0;resizeParent=1;resizeParentMax=0;resizeLast=0;collapsible=1;marginBottom=0;whiteSpace=wrap;html=1;" parent="1" vertex="1">
          <mxGeometry x="570" y="970" width="120" height="150" as="geometry" />
        </mxCell>
        <mxCell id="k6TKzHXYJxToXEQoLTug-40" value="+ Criar ()" style="text;strokeColor=none;fillColor=none;align=left;verticalAlign=middle;spacingLeft=4;spacingRight=4;overflow=hidden;points=[[0,0.5],[1,0.5]];portConstraint=eastwest;rotatable=0;whiteSpace=wrap;html=1;" parent="k6TKzHXYJxToXEQoLTug-38" vertex="1">
          <mxGeometry y="30" width="120" height="30" as="geometry" />
        </mxCell>
        <mxCell id="k6TKzHXYJxToXEQoLTug-41" value="+ Atualizar ()" style="text;strokeColor=none;fillColor=none;align=left;verticalAlign=middle;spacingLeft=4;spacingRight=4;overflow=hidden;points=[[0,0.5],[1,0.5]];portConstraint=eastwest;rotatable=0;whiteSpace=wrap;html=1;" parent="k6TKzHXYJxToXEQoLTug-38" vertex="1">
          <mxGeometry y="60" width="120" height="30" as="geometry" />
        </mxCell>
        <mxCell id="k6TKzHXYJxToXEQoLTug-42" value="+ Buscar ()" style="text;strokeColor=none;fillColor=none;align=left;verticalAlign=middle;spacingLeft=4;spacingRight=4;overflow=hidden;points=[[0,0.5],[1,0.5]];portConstraint=eastwest;rotatable=0;whiteSpace=wrap;html=1;" parent="k6TKzHXYJxToXEQoLTug-38" vertex="1">
          <mxGeometry y="90" width="120" height="30" as="geometry" />
        </mxCell>
        <mxCell id="k6TKzHXYJxToXEQoLTug-43" value="+ Remover()" style="text;strokeColor=none;fillColor=none;align=left;verticalAlign=middle;spacingLeft=4;spacingRight=4;overflow=hidden;points=[[0,0.5],[1,0.5]];portConstraint=eastwest;rotatable=0;whiteSpace=wrap;html=1;" parent="k6TKzHXYJxToXEQoLTug-38" vertex="1">
          <mxGeometry y="120" width="120" height="30" as="geometry" />
        </mxCell>
        <mxCell id="ukzI_lSzqX0K3y_ECkxB-1" value="&lt;b&gt;&amp;lt;&amp;lt;node&amp;gt;&amp;gt;&lt;/b&gt;&lt;div&gt;&lt;b&gt;Banco de dados&lt;/b&gt;&lt;/div&gt;" style="swimlane;fontStyle=0;childLayout=stackLayout;horizontal=1;startSize=30;horizontalStack=0;resizeParent=1;resizeParentMax=0;resizeLast=0;collapsible=1;marginBottom=0;whiteSpace=wrap;html=1;" vertex="1" parent="1">
          <mxGeometry x="460" y="1190" width="130" height="60" as="geometry" />
        </mxCell>
        <mxCell id="ukzI_lSzqX0K3y_ECkxB-6" style="rounded=0;orthogonalLoop=1;jettySize=auto;html=1;exitX=0.5;exitY=0;exitDx=0;exitDy=0;entryX=0.514;entryY=1;entryDx=0;entryDy=0;entryPerimeter=0;endArrow=none;endFill=0;startFill=0;startArrow=open;strokeWidth=2;dashed=1;" edge="1" parent="1" source="k6TKzHXYJxToXEQoLTug-20" target="k6TKzHXYJxToXEQoLTug-11">
          <mxGeometry relative="1" as="geometry" />
        </mxCell>
        <mxCell id="ukzI_lSzqX0K3y_ECkxB-17" value="Use" style="edgeLabel;html=1;align=center;verticalAlign=middle;resizable=0;points=[];fontFamily=Helvetica;fontSize=11;fontColor=default;labelBackgroundColor=default;" vertex="1" connectable="0" parent="ukzI_lSzqX0K3y_ECkxB-6">
          <mxGeometry x="-0.0157" y="-1" relative="1" as="geometry">
            <mxPoint as="offset" />
          </mxGeometry>
        </mxCell>
        <mxCell id="ukzI_lSzqX0K3y_ECkxB-8" style="edgeStyle=none;shape=connector;rounded=0;orthogonalLoop=1;jettySize=auto;html=1;exitX=0.5;exitY=0;exitDx=0;exitDy=0;entryX=0.519;entryY=1.003;entryDx=0;entryDy=0;entryPerimeter=0;dashed=1;strokeColor=default;strokeWidth=2;align=center;verticalAlign=middle;fontFamily=Helvetica;fontSize=11;fontColor=default;labelBackgroundColor=default;startArrow=open;startFill=0;endArrow=none;endFill=0;" edge="1" parent="1" source="k6TKzHXYJxToXEQoLTug-14" target="k6TKzHXYJxToXEQoLTug-11">
          <mxGeometry relative="1" as="geometry" />
        </mxCell>
        <mxCell id="ukzI_lSzqX0K3y_ECkxB-16" value="Use" style="edgeLabel;html=1;align=center;verticalAlign=middle;resizable=0;points=[];fontFamily=Helvetica;fontSize=11;fontColor=default;labelBackgroundColor=default;" vertex="1" connectable="0" parent="ukzI_lSzqX0K3y_ECkxB-8">
          <mxGeometry x="0.2109" y="-1" relative="1" as="geometry">
            <mxPoint as="offset" />
          </mxGeometry>
        </mxCell>
        <mxCell id="ukzI_lSzqX0K3y_ECkxB-10" style="edgeStyle=none;shape=connector;rounded=0;orthogonalLoop=1;jettySize=auto;html=1;exitX=0.5;exitY=0;exitDx=0;exitDy=0;entryX=0.49;entryY=1.033;entryDx=0;entryDy=0;entryPerimeter=0;dashed=1;strokeColor=default;strokeWidth=2;align=center;verticalAlign=middle;fontFamily=Helvetica;fontSize=11;fontColor=default;labelBackgroundColor=default;startArrow=open;startFill=0;endArrow=none;endFill=0;" edge="1" parent="1" source="k6TKzHXYJxToXEQoLTug-32" target="k6TKzHXYJxToXEQoLTug-21">
          <mxGeometry relative="1" as="geometry" />
        </mxCell>
        <mxCell id="ukzI_lSzqX0K3y_ECkxB-22" value="Use" style="edgeLabel;html=1;align=center;verticalAlign=middle;resizable=0;points=[];fontFamily=Helvetica;fontSize=11;fontColor=default;labelBackgroundColor=default;" vertex="1" connectable="0" parent="ukzI_lSzqX0K3y_ECkxB-10">
          <mxGeometry x="0.2245" y="1" relative="1" as="geometry">
            <mxPoint as="offset" />
          </mxGeometry>
        </mxCell>
        <mxCell id="ukzI_lSzqX0K3y_ECkxB-11" style="edgeStyle=none;shape=connector;rounded=0;orthogonalLoop=1;jettySize=auto;html=1;exitX=0.5;exitY=0;exitDx=0;exitDy=0;entryX=0.48;entryY=1.067;entryDx=0;entryDy=0;entryPerimeter=0;dashed=1;strokeColor=default;strokeWidth=2;align=center;verticalAlign=middle;fontFamily=Helvetica;fontSize=11;fontColor=default;labelBackgroundColor=default;startArrow=open;startFill=0;endArrow=none;endFill=0;" edge="1" parent="1" source="k6TKzHXYJxToXEQoLTug-32" target="k6TKzHXYJxToXEQoLTug-16">
          <mxGeometry relative="1" as="geometry" />
        </mxCell>
        <mxCell id="ukzI_lSzqX0K3y_ECkxB-23" value="Use" style="edgeLabel;html=1;align=center;verticalAlign=middle;resizable=0;points=[];fontFamily=Helvetica;fontSize=11;fontColor=default;labelBackgroundColor=default;" vertex="1" connectable="0" parent="ukzI_lSzqX0K3y_ECkxB-11">
          <mxGeometry x="-0.1269" y="2" relative="1" as="geometry">
            <mxPoint as="offset" />
          </mxGeometry>
        </mxCell>
        <mxCell id="ukzI_lSzqX0K3y_ECkxB-12" style="edgeStyle=none;shape=connector;rounded=0;orthogonalLoop=1;jettySize=auto;html=1;exitX=0.5;exitY=0;exitDx=0;exitDy=0;entryX=0.512;entryY=1.095;entryDx=0;entryDy=0;entryPerimeter=0;dashed=1;strokeColor=default;strokeWidth=2;align=center;verticalAlign=middle;fontFamily=Helvetica;fontSize=11;fontColor=default;labelBackgroundColor=default;startArrow=open;startFill=0;endArrow=none;endFill=0;" edge="1" parent="1" source="k6TKzHXYJxToXEQoLTug-38" target="k6TKzHXYJxToXEQoLTug-23">
          <mxGeometry relative="1" as="geometry" />
        </mxCell>
        <mxCell id="ukzI_lSzqX0K3y_ECkxB-21" value="Use" style="edgeLabel;html=1;align=center;verticalAlign=middle;resizable=0;points=[];fontFamily=Helvetica;fontSize=11;fontColor=default;labelBackgroundColor=default;" vertex="1" connectable="0" parent="ukzI_lSzqX0K3y_ECkxB-12">
          <mxGeometry x="0.3227" y="-1" relative="1" as="geometry">
            <mxPoint as="offset" />
          </mxGeometry>
        </mxCell>
        <mxCell id="ukzI_lSzqX0K3y_ECkxB-13" style="edgeStyle=none;shape=connector;rounded=0;orthogonalLoop=1;jettySize=auto;html=1;exitX=0.5;exitY=0;exitDx=0;exitDy=0;entryX=0.507;entryY=1.067;entryDx=0;entryDy=0;entryPerimeter=0;dashed=1;strokeColor=default;strokeWidth=2;align=center;verticalAlign=middle;fontFamily=Helvetica;fontSize=11;fontColor=default;labelBackgroundColor=default;startArrow=open;startFill=0;endArrow=none;endFill=0;" edge="1" parent="1" source="k6TKzHXYJxToXEQoLTug-38" target="k6TKzHXYJxToXEQoLTug-25">
          <mxGeometry relative="1" as="geometry" />
        </mxCell>
        <mxCell id="ukzI_lSzqX0K3y_ECkxB-20" value="Use" style="edgeLabel;html=1;align=center;verticalAlign=middle;resizable=0;points=[];fontFamily=Helvetica;fontSize=11;fontColor=default;labelBackgroundColor=default;" vertex="1" connectable="0" parent="ukzI_lSzqX0K3y_ECkxB-13">
          <mxGeometry x="0.2125" y="-1" relative="1" as="geometry">
            <mxPoint as="offset" />
          </mxGeometry>
        </mxCell>
        <mxCell id="ukzI_lSzqX0K3y_ECkxB-14" style="edgeStyle=none;shape=connector;rounded=0;orthogonalLoop=1;jettySize=auto;html=1;exitX=0.5;exitY=0;exitDx=0;exitDy=0;entryX=0.484;entryY=1.061;entryDx=0;entryDy=0;entryPerimeter=0;dashed=1;strokeColor=default;strokeWidth=2;align=center;verticalAlign=middle;fontFamily=Helvetica;fontSize=11;fontColor=default;labelBackgroundColor=default;startArrow=open;startFill=0;endArrow=none;endFill=0;" edge="1" parent="1" source="ukzI_lSzqX0K3y_ECkxB-1" target="k6TKzHXYJxToXEQoLTug-37">
          <mxGeometry relative="1" as="geometry" />
        </mxCell>
        <mxCell id="ukzI_lSzqX0K3y_ECkxB-24" value="Use" style="edgeLabel;html=1;align=center;verticalAlign=middle;resizable=0;points=[];fontFamily=Helvetica;fontSize=11;fontColor=default;labelBackgroundColor=default;" vertex="1" connectable="0" parent="ukzI_lSzqX0K3y_ECkxB-14">
          <mxGeometry x="0.0824" y="2" relative="1" as="geometry">
            <mxPoint as="offset" />
          </mxGeometry>
        </mxCell>
        <mxCell id="ukzI_lSzqX0K3y_ECkxB-15" style="edgeStyle=none;shape=connector;rounded=0;orthogonalLoop=1;jettySize=auto;html=1;exitX=0.5;exitY=0;exitDx=0;exitDy=0;entryX=0.52;entryY=1.096;entryDx=0;entryDy=0;entryPerimeter=0;dashed=1;strokeColor=default;strokeWidth=2;align=center;verticalAlign=middle;fontFamily=Helvetica;fontSize=11;fontColor=default;labelBackgroundColor=default;startArrow=open;startFill=0;endArrow=none;endFill=0;" edge="1" parent="1" source="ukzI_lSzqX0K3y_ECkxB-1" target="k6TKzHXYJxToXEQoLTug-43">
          <mxGeometry relative="1" as="geometry" />
        </mxCell>
        <mxCell id="ukzI_lSzqX0K3y_ECkxB-25" value="Use" style="edgeLabel;html=1;align=center;verticalAlign=middle;resizable=0;points=[];fontFamily=Helvetica;fontSize=11;fontColor=default;labelBackgroundColor=default;" vertex="1" connectable="0" parent="ukzI_lSzqX0K3y_ECkxB-15">
          <mxGeometry x="-0.0057" y="-1" relative="1" as="geometry">
            <mxPoint as="offset" />
          </mxGeometry>
        </mxCell>
      </root>
    </mxGraphModel>
  </diagram>
</mxfile>
